<?xml version="1.0" encoding="utf-8"?>
<!-- Generator: Adobe Illustrator 23.0.6, SVG Export Plug-In . SVG Version: 6.00 Build 0)  -->
<svg version="1.1" id="Layer_1" xmlns="http://www.w3.org/2000/svg" xmlns:xlink="http://www.w3.org/1999/xlink" x="0px" y="0px"
	 viewBox="0 0 114 71" style="enable-background:new 0 0 114 71;" xml:space="preserve">
<style type="text/css">
	.st0{display:none;}
	.st1{display:inline;fill:#010101;}
	.st2{display:inline;}
	.st3{fill:#0B72BA;}
	.st4{fill:url(#SVGID_1_);}
	.st5{fill:#333333;}
	.st6{fill:url(#SVGID_2_);}
	.st7{fill:url(#SVGID_3_);}
	.st8{fill:#010101;}
	.st9{fill:url(#SVGID_4_);}
	.st10{fill:url(#SVGID_5_);}
	.st11{fill:url(#SVGID_6_);}
	.st12{fill:url(#SVGID_7_);}
	.st13{fill:url(#SVGID_8_);}
	.st14{fill:url(#SVGID_9_);}
	.st15{fill:url(#SVGID_10_);}
	.st16{fill:url(#SVGID_11_);}
	.st17{fill:url(#SVGID_12_);}
	.st18{fill:#C3D8E8;}
	.st19{fill:url(#SVGID_13_);}
	.st20{fill:#13414F;}
	.st21{fill:url(#SVGID_14_);}
	.st22{fill:url(#SVGID_15_);}
	.st23{fill:url(#SVGID_16_);}
	.st24{fill:url(#SVGID_17_);}
</style>
<g class="st0">
	<path class="st1" d="M57,43c1.6-2,2.6-4.7,2.6-7.5S58.6,30,57,28c-1.6,2-2.6,4.7-2.6,7.5S55.4,40.9,57,43L57,43z M57,28.8
		c1.4,1.8,2.2,4.2,2.2,6.7s-0.8,4.8-2.2,6.7c-1.4-1.8-2.2-4.2-2.2-6.7C55,33,55.8,30.6,57,28.8L57,28.8z"/>
	<path class="st1" d="M38.1,42.8c1.6-2,2.6-4.6,2.6-7.5c0-2.8-1-5.3-2.6-7.3c-1.6,2-2.6,4.6-2.6,7.3C35.6,38.2,36.5,40.9,38.1,42.8
		L38.1,42.8z M38.1,29c1.2,1.8,2,4,2,6.5c0,2.4-0.7,4.6-2,6.5c-1.2-1.8-2-4-2-6.5C36.1,33.1,36.8,30.8,38.1,29L38.1,29z"/>
	<path class="st1" d="M66.4,23.4c-2.8,0-5.3,0.9-7.3,2.4c2.2,2.6,3.5,6,3.5,9.6c0,3.6-1.2,7.1-3.4,9.6c2,1.6,4.5,2.4,7.3,2.4
		c2.8,0,5.4-1,7.5-2.6c-2.2-2.6-3.3-5.9-3.3-9.5c0-3.6,1.2-7,3.4-9.5l0,0C71.8,24.3,69.3,23.4,66.4,23.4L66.4,23.4z M69.9,35.5
		c0,3.5,1.2,6.8,3.1,9.4c-1.8,1.4-4.2,2.2-6.7,2.2c-2.4,0-4.6-0.8-6.5-2c2-2.6,3.2-6,3.2-9.5c0-3.6-1.2-6.9-3.2-9.5
		c1.8-1.2,4.1-2,6.5-2c2.4,0,4.8,0.8,6.7,2.2C71.1,28.7,69.9,32,69.9,35.5L69.9,35.5z"/>
	<path class="st1" d="M85.5,19.9c-3.6,0-6.9,1.2-9.5,3.2c-2.6-2-6-3.2-9.6-3.2c-3.5,0-6.8,1.2-9.4,3.1c-2.6-2-5.9-3.1-9.4-3.1
		c-3.7,0-6.9,1.2-9.5,3.2c-2.7-2-6-3.2-9.5-3.2c-8.7,0-15.6,7-15.6,15.6s7,15.6,15.6,15.6c3.6,0,6.9-1.2,9.5-3.2
		c2.6,2,6,3.2,9.5,3.2s6.8-1.2,9.4-3.1c2.6,2,5.9,3.1,9.4,3.1c3.6,0,6.9-1.2,9.5-3.2c2.6,2,6,3.2,9.5,3.2c8.7,0,15.6-7,15.6-15.6
		C101.1,26.8,94.1,19.9,85.5,19.9L85.5,19.9z M85.5,50.5c-3.6,0-7-1.2-9.5-3.4c-2.6,2.2-5.9,3.4-9.5,3.4c-3.5,0-6.9-1.2-9.4-3.3
		c-2.6,2-5.9,3.3-9.4,3.3c-3.6,0-7-1.2-9.5-3.4c-2.6,2.2-5.9,3.4-9.5,3.4c-8.4,0-15-6.8-15-15c0-8.3,6.8-15,15-15
		c3.6,0,7,1.2,9.5,3.4c2.6-2.2,5.9-3.4,9.5-3.4c3.5,0,6.9,1.2,9.4,3.3c2.6-2,5.9-3.3,9.4-3.3c3.6,0,7,1.2,9.5,3.4v1.4v-1.4
		c2.6-2.2,5.9-3.4,9.5-3.4c8.3,0,15,6.8,15,15C100.5,43.7,93.7,50.5,85.5,50.5L85.5,50.5z"/>
	<path class="st1" d="M28.6,23.4c-6.7,0-12.1,5.4-12.1,12.1s5.4,12.1,12.1,12.1c2.8,0,5.4-1,7.5-2.6c-2.2-2.6-3.3-5.9-3.3-9.5
		c0-3.6,1.2-7,3.4-9.5l0,0C34,24.3,31.4,23.4,28.6,23.4L28.6,23.4z M32,35.5c0,3.5,1.2,6.8,3.1,9.4C33.3,46.3,31,47,28.5,47
		C22.1,47,17,41.9,17,35.6c0-6.4,5.2-11.5,11.5-11.5c2.4,0,4.8,0.8,6.7,2.2C33.2,28.7,32,32,32,35.5L32,35.5z"/>
	<path class="st1" d="M75.9,28.2c-1.6,2-2.6,4.6-2.6,7.3s1,5.4,2.6,7.5c1.6-2,2.6-4.6,2.6-7.5C78.4,32.7,77.5,30.2,75.9,28.2
		L75.9,28.2z M75.9,41.9c-1.2-1.8-2-4-2-6.5c0-2.4,0.7-4.6,2-6.5c1.2,1.8,2,4,2,6.5C78,37.8,77.2,40.1,75.9,41.9L75.9,41.9z"/>
	<path class="st1" d="M40.2,26c2,2.6,3.3,5.9,3.3,9.5s-1.2,7-3.3,9.5c2,1.6,4.6,2.6,7.5,2.6c2.8,0,5.3-0.9,7.3-2.4
		c-2.2-2.6-3.5-6-3.5-9.6c0-3.6,1.2-7.1,3.5-9.6c-2-1.6-4.5-2.4-7.3-2.4C44.9,23.4,42.3,24.4,40.2,26L40.2,26z M50.8,35.5
		c0,3.6,1.2,6.9,3.2,9.5c-1.8,1.2-4.1,2-6.5,2c-2.4,0-4.8-0.8-6.7-2.2c2-2.6,3.1-5.9,3.1-9.4s-1.2-6.8-3.1-9.4
		c1.8-1.4,4.2-2.2,6.7-2.2c2.4,0,4.6,0.8,6.5,2C52.1,28.6,50.8,31.8,50.8,35.5L50.8,35.5z"/>
	<path class="st1" d="M97.6,35.5c0-6.7-5.4-12.1-12.1-12.1c-2.8,0-5.3,1-7.3,2.6c2,2.6,3.2,6,3.2,9.5c0,3.6-1.2,7-3.3,9.5
		c2,1.6,4.6,2.6,7.5,2.6C92.2,47.5,97.6,42.1,97.6,35.5L97.6,35.5z M82,35.5c0-3.5-1.2-6.8-3.1-9.4c1.8-1.4,4.2-2.2,6.7-2.2
		C91.9,24,97,29.1,97,35.4c0,6.4-5.2,11.5-11.5,11.5c-2.4,0-4.8-0.8-6.7-2.2C80.8,42.3,82,39,82,35.5L82,35.5z"/>
	<path id="XMLID_38_" class="st1" d="M35.6,35.5c0-2.8,1-5.3,2.6-7.3v-1.4c-2.2,2.4-3.4,5.4-3.4,8.8c0,3.3,1.2,6.5,3.4,8.8V43
		C36.5,40.9,35.6,38.2,35.6,35.5L35.6,35.5z"/>
	<path id="XMLID_37_" class="st1" d="M28.6,21.5c3.7,0,7.1,1.4,9.5,3.8v-1.4c-2.6-2.2-5.9-3.4-9.5-3.4c-2.6,0-5.2,0.7-7.3,2
		C21.3,22.3,23,21.5,28.6,21.5L28.6,21.5z"/>
	<path id="XMLID_36_" class="st1" d="M15.4,30.8c-0.5,1.4-0.8,3-0.8,4.6c0,7.7,6.2,13.9,13.9,13.9c3.7,0,7.1-1.4,9.5-3.8v1.4
		c-2.6,2.2-5.9,3.4-9.5,3.4c-8.3,0-15-6.8-15-15C13.6,33.2,15.4,30.8,15.4,30.8L15.4,30.8z"/>
	<path id="XMLID_35_" class="st1" d="M40.6,35.5c0-2.8-1-5.3-2.6-7.3v-1.4c2.2,2.4,3.4,5.4,3.4,8.8c0,2.2-0.5,4.2-1.4,6
		C40.1,41.5,40.6,40.2,40.6,35.5L40.6,35.5z"/>
	<path id="XMLID_34_" class="st1" d="M32.6,35.5c0,3.6,1.2,7,3.3,9.5l1.4-0.1c-2.4-2.4-3.7-5.8-3.7-9.4c0-1.8,0.4-3.5,1-5.2
		C34.8,30.3,32.6,33.7,32.6,35.5L32.6,35.5z"/>
	<path id="XMLID_33_" class="st1" d="M28.6,47.5c-6.7,0-12.1-5.4-12.1-12.1s5.4-12.1,12.1-12.1c2.8,0,5.4,1,7.5,2.6l0,0l1.4,0.1
		c-2.4-2.2-5.5-3.5-8.9-3.5c-7.1-0.1-13.1,5.8-13.1,12.9s5.8,12.9,12.9,12.9c2,0,3.9-0.5,5.7-1.2C34.2,47.1,32.8,47.5,28.6,47.5
		L28.6,47.5z"/>
	<path id="XMLID_32_" class="st1" d="M76.7,44.9l1.4,0.1c2-2.6,3.3-5.9,3.3-9.5c0-3.5-1.2-7-3.2-9.5L76.6,26
		c2.2,2.4,3.7,5.8,3.7,9.4C80.3,39.1,79,42.5,76.7,44.9L76.7,44.9z"/>
	<path id="XMLID_31_" class="st1" d="M66.4,49.4c-3.6,0-7-1.4-9.4-3.7v1.4c2.6,2,5.9,3.3,9.4,3.3c3.6,0,7-1.2,9.5-3.4v-1.4
		C73.5,47.9,70.1,49.4,66.4,49.4L66.4,49.4z"/>
	<path id="XMLID_30_" class="st1" d="M66.4,21.5c3.7,0,7.1,1.4,9.5,3.8v-1.4c-2.6-2.2-5.9-3.4-9.5-3.4c-2.6,0-5.1,0.7-7.3,1.8
		C59.2,22.3,60.5,21.5,66.4,21.5L66.4,21.5z"/>
	<path id="XMLID_29_" class="st1" d="M75.9,44.2v-1.4c-1.6-2-2.6-4.6-2.6-7.5c0-2.8,1-5.3,2.6-7.3v-1.4c-2.2,2.4-3.4,5.4-3.4,8.8
		C72.5,38.8,73.9,41.9,75.9,44.2L75.9,44.2z"/>
	<path id="XMLID_28_" class="st1" d="M78.4,35.5c0-2.8-1-5.3-2.6-7.3v-1.4c2.2,2.4,3.4,5.4,3.4,8.8c0,2.2-0.6,4.2-1.4,6
		C77.9,41.5,78.4,39.5,78.4,35.5L78.4,35.5z"/>
	<path id="XMLID_27_" class="st1" d="M85.5,21.5c7.7,0,13.9,6.2,13.9,13.9c0,7.7-6.2,13.9-13.9,13.9c-3.7,0-7.1-1.4-9.5-3.8V47
		c2.6,2.2,5.9,3.4,9.5,3.4c8.3,0,15-6.8,15-15c0-8.3-6.8-15-15-15c-2.8,0-5.3,0.7-7.5,2C78.2,22.3,80.4,21.5,85.5,21.5L85.5,21.5z"
		/>
	<path id="XMLID_26_" class="st1" d="M70.5,35.5c0,3.6,1.2,7,3.3,9.5l1.4-0.1c-2.4-2.4-3.7-5.8-3.7-9.4c0-1.8,0.4-3.7,1-5.4
		C72.7,30.1,70.5,33.7,70.5,35.5L70.5,35.5z"/>
	<path id="XMLID_25_" class="st1" d="M66.4,23.4c2.8,0,5.4,1,7.5,2.6l0,0l1.4,0.1l0,0c-2.4-2.2-5.5-3.5-8.9-3.5
		c-3.3,0-6.5,1.2-8.7,3.4h1.4C61.1,24.3,63.7,23.4,66.4,23.4L66.4,23.4z"/>
	<path id="XMLID_24_" class="st1" d="M47.6,23.4c2.8,0,5.3,0.9,7.3,2.4l1.4,0.1c-2.4-2.1-5.4-3.4-8.7-3.4c-3.4,0-6.6,1.4-8.9,3.5
		h1.4C42.3,24.4,44.9,23.4,47.6,23.4L47.6,23.4z"/>
	<path id="XMLID_23_" class="st1" d="M40.1,22.4c2.2-1.2,4.7-2,7.5-2c3.5,0,6.9,1.2,9.4,3.3v1.4c-2.4-2.2-5.8-3.6-9.4-3.6
		C43.8,21.5,40.1,22.4,40.1,22.4L40.1,22.4z"/>
	<path id="XMLID_22_" class="st1" d="M62.6,35.5c0-3.6-1.4-7.1-3.5-9.6h-1.4c2.4,2.4,3.8,5.9,3.8,9.6s-1.4,7.1-3.8,9.6H59
		C61.3,42.5,62.6,39.1,62.6,35.5L62.6,35.5z"/>
	<path id="XMLID_21_" class="st1" d="M59.8,35.5c0-2.8-1-5.5-2.6-7.5v-1.4c2.2,2.4,3.5,5.5,3.5,8.9c0,2.2-0.5,4.2-1.4,6.1
		C59.2,41.3,59.8,38.9,59.8,35.5L59.8,35.5z"/>
	<path id="XMLID_20_" class="st1" d="M47.6,47.5c-2.8,0-5.4-1-7.5-2.6l-1.4-0.1c2.4,2.2,5.4,3.5,8.8,3.5c2.2,0,4.1-0.5,5.9-1.4
		C53.5,47,51.7,47.5,47.6,47.5L47.6,47.5z"/>
	<path id="XMLID_19_" class="st1" d="M51.4,35.5c0,3.6,1.2,7.1,3.5,9.6l1.4-0.1c-2.4-2.4-3.8-5.9-3.8-9.6c0-2,0.4-3.8,1-5.5
		C53.7,30,51.4,33.7,51.4,35.5L51.4,35.5z"/>
	<path id="XMLID_18_" class="st1" d="M72.3,47c-1.8,0.9-3.7,1.4-5.9,1.4c-3.3,0-6.5-1.2-8.7-3.4h1.4c2,1.6,4.5,2.4,7.3,2.4
		C70.6,47.5,72.3,47,72.3,47L72.3,47z"/>
	<path id="XMLID_17_" class="st1" d="M54.4,35.5c0-2.8,1-5.5,2.6-7.5v-1.4c-2.2,2.4-3.6,5.5-3.6,8.9s1.4,6.7,3.6,8.9V43
		C55.4,40.9,54.4,38.3,54.4,35.5L54.4,35.5z"/>
	<path id="XMLID_16_" class="st1" d="M47.6,49.4c-3.7,0-7.1-1.4-9.5-3.8V47c2.6,2.2,5.9,3.4,9.5,3.4c3.5,0,6.8-1.2,9.4-3.3v-1.4
		C54.6,47.9,51.2,49.4,47.6,49.4L47.6,49.4z"/>
	<path id="XMLID_15_" class="st1" d="M43.6,35.5c0-3.5-1.2-7-3.3-9.5h-1.4c2.2,2.4,3.7,5.8,3.7,9.4s-1.4,7-3.6,9.4l1.4,0.1
		C42.3,42.3,43.6,39,43.6,35.5L43.6,35.5z"/>
	<path id="XMLID_14_" class="st1" d="M97.6,35.5c0-6.7-5.4-12.1-12.1-12.1c-2.8,0-5.3,1-7.3,2.6l-1.6,0.1c2.4-2.2,5.5-3.5,8.9-3.5
		c7.1,0,12.9,5.8,12.9,12.9c0,2.2-0.6,4.2-1.4,6.1C97,41.5,97.6,40.1,97.6,35.5L97.6,35.5z"/>
	<path id="XMLID_13_" class="st1" d="M85.5,47.5c-2.8,0-5.4-1-7.5-2.6l-1.4-0.1c2.4,2.2,5.4,3.5,8.8,3.5c2,0,3.9-0.5,5.7-1.2
		C91.1,47.1,90.3,47.5,85.5,47.5L85.5,47.5z"/>
</g>
<g class="st0">
	<g class="st2">
		<path class="st3" d="M81.8,35.5c0-6.8-2.4-12.6-7.3-17.4c-4.9-4.9-10.6-7.2-17.5-7.2s-12.6,2.4-17.5,7.2
			c-4.9,4.9-7.3,10.6-7.3,17.4s2.4,12.6,7.3,17.4s10.6,7.2,17.5,7.2s12.6-2.4,17.5-7.2C79.4,48.1,81.8,42.3,81.8,35.5z M64.7,28
			c2.1,2.1,3.1,4.6,3.1,7.5c0,2.9-1,5.4-3.1,7.5c-2.1,2.1-4.5,3.1-7.5,3.1c-2.9,0-5.4-1-7.5-3.1c-2.1-2.1-3.1-4.6-3.1-7.5
			c0-2.9,1.1-5.4,3.1-7.5c2.1-2.1,4.6-3.1,7.5-3.1C60.2,24.9,62.6,26,64.7,28z M69.2,19.6c4.9,4.4,7.5,9.1,7.6,14.2
			c-4.1-6.4-10.1-10-18.1-10.7C61.2,20.8,64.7,19.6,69.2,19.6z M41.3,22.9c4.9-5.1,10.1-7.5,15.7-7.2C49.5,20,45.5,26.4,45,34.7
			C42.4,31.9,41.3,28,41.3,22.9z M56.2,48.5c-2.4,2.3-5.9,3.5-10.4,3.7c-5.9-4.7-8.7-10-8.5-16.2C41.3,43.4,47.5,47.6,56.2,48.5z
			 M70.4,37c2.3,3.1,3.4,6.3,3.4,9.4c-3.8,5.2-8.7,8.2-14.7,9C66,50.8,69.7,44.7,70.4,37z"/>
		<path class="st3" d="M65.1,35.6h-1.7c-0.3,2.9-2.8,4.3-7.6,3.9l1.7-7.9c0-1.1,0.3-1.8,0.9-2c0.7-0.1,1-0.6,1.1-1.3h-7.5l0.1,1.1
			c0.6,0,0.8,0.5,0.6,1.4l-1.2,5.4c-0.4,2.9-0.9,4.4-1.3,4.4c-0.7,0-1,0.4-0.9,1.2h14.3L65.1,35.6z"/>
	</g>
</g>
<g>
	
		<linearGradient id="SVGID_1_" gradientUnits="userSpaceOnUse" x1="-1033.7119" y1="2112.2871" x2="-1012.4561" y2="2091.7468" gradientTransform="matrix(2.4662 0 0 -2.4662 2577.9741 5217.4111)">
		<stop  offset="0" style="stop-color:#E0F3FD"/>
		<stop  offset="9.800000e-02" style="stop-color:#D6E9F4"/>
		<stop  offset="0.268" style="stop-color:#BFD0D9"/>
		<stop  offset="0.488" style="stop-color:#98A5AC"/>
		<stop  offset="0.747" style="stop-color:#656C6F"/>
		<stop  offset="1" style="stop-color:#2B2C2B"/>
	</linearGradient>
	<path class="st4" d="M57,10.8c-13.6,0-24.7,11.1-24.7,24.7S43.4,60.2,57,60.2s24.7-11.1,24.7-24.7S70.6,10.8,57,10.8z M57,58.9
		c-13,0-23.4-10.5-23.4-23.4S44,12.1,57,12.1s23.4,10.5,23.4,23.4S70,58.9,57,58.9z"/>
	<path class="st5" d="M80.7,35.5c0,13-10.6,23.7-23.7,23.7c-13,0-23.7-10.6-23.7-23.7c0-13,10.6-23.7,23.7-23.7
		C70,11.8,80.7,22.4,80.7,35.5z"/>
	
		<radialGradient id="SVGID_2_" cx="-1032.3622" cy="2110.5527" r="14.2327" gradientTransform="matrix(2.4662 0 0 -2.4662 2577.9741 5217.4111)" gradientUnits="userSpaceOnUse">
		<stop  offset="0" style="stop-color:#FFFFFF"/>
		<stop  offset="0.306" style="stop-color:#A9A8A8"/>
		<stop  offset="0.646" style="stop-color:#505050"/>
		<stop  offset="0.885" style="stop-color:#171717"/>
		<stop  offset="1" style="stop-color:#010101"/>
	</radialGradient>
	<path class="st6" d="M80.4,35.5c0,13-10.5,23.4-23.4,23.4S33.6,48.5,33.6,35.5S44,12.1,57,12.1C70,12,80.4,22.5,80.4,35.5z"/>
	
		<linearGradient id="SVGID_3_" gradientUnits="userSpaceOnUse" x1="29.885" y1="546.5594" x2="43.4228" y2="533.4775" gradientTransform="matrix(-2.4662 0 0 2.4662 148.7384 -1294.9963)">
		<stop  offset="0" style="stop-color:#E0F3FD"/>
		<stop  offset="8.600000e-02" style="stop-color:#D6E9F4"/>
		<stop  offset="0.233" style="stop-color:#BED0D9"/>
		<stop  offset="0.424" style="stop-color:#96A4AD"/>
		<stop  offset="0.652" style="stop-color:#60696E"/>
		<stop  offset="0.907" style="stop-color:#1A1D1E"/>
		<stop  offset="1" style="stop-color:#010101"/>
	</linearGradient>
	<path class="st7" d="M72.7,35.5c0,8.7-7,15.7-15.7,15.7s-15.7-7-15.7-15.7s7-15.7,15.7-15.7S72.7,26.8,72.7,35.5z"/>
	<path class="st8" d="M57.6,19.3l1.6-4.3v4.3h1.3v-6.2h-1.9l-1.7,4.4l0,0l-1.7-4.4h-1.9v6.2h1.3V15l1.6,4.3
		C56.3,19.3,57.6,19.3,57.6,19.3z M74.7,22.1l-2.1,3.1l3.3-1.6l0.9,1l-5.2,2.6l-1-1.2l2-3.1l0,0l-3.4,1.4l-1-1.3l3.5-4.7l0.9,1
		l-2.2,3l3.4-1.5L74.7,22.1z"/>
	<path class="st5" d="M46,20.9c-0.5-0.4-1.3-0.6-2-0.1c0.1-0.4,0.1-0.7,0-0.9c-0.3-0.6-0.4-0.7-0.7-0.8c-0.8-0.7-1.7-0.1-2.3,0.7
		l-3,3.6l4.8,4l3.2-3.8C46.7,22.5,46.7,21.6,46,20.9L46,20.9z M39.9,22.7l1.8-2.2c0.2-0.2,0.7-0.2,1,0c0.3,0.3,0.4,0.7,0.1,1
		l-1.8,2.2L39.9,22.7L39.9,22.7z M44.9,23L43,25.2l-1.2-1l1.9-2.2c0.2-0.2,0.7-0.3,1-0.1C45.1,22.2,45.1,22.7,44.9,23L44.9,23z"/>
	
		<radialGradient id="SVGID_4_" cx="-1034.9183" cy="2112.0022" r="34.1991" gradientTransform="matrix(2.4662 0 0 -2.4662 2577.9741 5217.4111)" gradientUnits="userSpaceOnUse">
		<stop  offset="0" style="stop-color:#FFFFFF"/>
		<stop  offset="0.31" style="stop-color:#FFFFFF"/>
		<stop  offset="0.451" style="stop-color:#F6F6F6"/>
		<stop  offset="0.557" style="stop-color:#E9E8E9"/>
		<stop  offset="0.646" style="stop-color:#D7D7D7"/>
		<stop  offset="0.724" style="stop-color:#C0BFBF"/>
		<stop  offset="0.794" style="stop-color:#A2A2A1"/>
		<stop  offset="0.859" style="stop-color:#818181"/>
		<stop  offset="0.92" style="stop-color:#575858"/>
		<stop  offset="0.975" style="stop-color:#2B2C2B"/>
		<stop  offset="1" style="stop-color:#161616"/>
	</radialGradient>
	<path class="st9" d="M57.7,19.1l1.6-4.3v4.3h1.3v-6.2h-1.9L57,17.3l0,0l-1.7-4.4h-1.9v6.2h1.3v-4.3l1.6,4.3
		C56.3,19.1,57.7,19.1,57.7,19.1z"/>
	
		<radialGradient id="SVGID_5_" cx="-1034.9199" cy="2112.0022" r="34.202" gradientTransform="matrix(2.4662 0 0 -2.4662 2577.9741 5217.4111)" gradientUnits="userSpaceOnUse">
		<stop  offset="0" style="stop-color:#FFFFFF"/>
		<stop  offset="0.31" style="stop-color:#FFFFFF"/>
		<stop  offset="0.451" style="stop-color:#F6F6F6"/>
		<stop  offset="0.557" style="stop-color:#E9E8E9"/>
		<stop  offset="0.646" style="stop-color:#D7D7D7"/>
		<stop  offset="0.724" style="stop-color:#C0BFBF"/>
		<stop  offset="0.794" style="stop-color:#A2A2A1"/>
		<stop  offset="0.859" style="stop-color:#818181"/>
		<stop  offset="0.92" style="stop-color:#575858"/>
		<stop  offset="0.975" style="stop-color:#2B2C2B"/>
		<stop  offset="1" style="stop-color:#161616"/>
	</radialGradient>
	<path class="st10" d="M74.7,21.7l-2.1,3.1l3.3-1.6l0.9,1l-5.2,2.6l-1-1.3l2-3.1l0,0l-3.4,1.4l-1-1.3l3.5-4.7l0.9,1l-2.2,3l3.4-1.5
		L74.7,21.7z"/>
	
		<radialGradient id="SVGID_6_" cx="-1034.9218" cy="2112.0122" r="34.2282" gradientTransform="matrix(2.4662 0 0 -2.4662 2577.9741 5217.4111)" gradientUnits="userSpaceOnUse">
		<stop  offset="0" style="stop-color:#FFFFFF"/>
		<stop  offset="0.31" style="stop-color:#FFFFFF"/>
		<stop  offset="0.451" style="stop-color:#F6F6F6"/>
		<stop  offset="0.557" style="stop-color:#E9E8E9"/>
		<stop  offset="0.646" style="stop-color:#D7D7D7"/>
		<stop  offset="0.724" style="stop-color:#C0BFBF"/>
		<stop  offset="0.794" style="stop-color:#A2A2A1"/>
		<stop  offset="0.859" style="stop-color:#818181"/>
		<stop  offset="0.92" style="stop-color:#575858"/>
		<stop  offset="0.975" style="stop-color:#2B2C2B"/>
		<stop  offset="1" style="stop-color:#161616"/>
	</radialGradient>
	<path class="st11" d="M45.8,20.8c-0.5-0.4-1.3-0.6-2-0.1c0.1-0.4,0.1-0.7,0-0.9c-0.3-0.6-0.4-0.7-0.7-0.8c-0.8-0.7-1.7-0.1-2.3,0.7
		l-3,3.6l4.8,4l3.2-3.8C46.4,22.4,46.6,21.6,45.8,20.8L45.8,20.8z M39.6,22.5l1.8-2.2c0.2-0.2,0.7-0.2,1,0c0.3,0.3,0.4,0.7,0.1,1
		l-1.8,2.2L39.6,22.5L39.6,22.5z M44.6,22.9l-1.9,2.2l-1.2-1l1.9-2.2c0.2-0.2,0.7-0.3,1-0.1C44.9,22.1,44.9,22.6,44.6,22.9
		L44.6,22.9z"/>
	
		<radialGradient id="SVGID_7_" cx="-1028.7933" cy="2107.261" r="9.2246" gradientTransform="matrix(2.4662 0 0 -2.4662 2577.9741 5217.4111)" gradientUnits="userSpaceOnUse">
		<stop  offset="0" style="stop-color:#E6E6E5"/>
		<stop  offset="0.104" style="stop-color:#D7D6D6"/>
		<stop  offset="0.307" style="stop-color:#AEAEAE"/>
		<stop  offset="0.588" style="stop-color:#6C6D6D"/>
		<stop  offset="0.933" style="stop-color:#141414"/>
		<stop  offset="1" style="stop-color:#010101"/>
	</radialGradient>
	<path class="st12" d="M41.8,35.5c0-8.4,6.8-15.2,15.2-15.2s15.2,6.8,15.2,15.2S65.4,50.7,57,50.7S41.8,43.9,41.8,35.5L41.8,35.5z"
		/>
	
		<radialGradient id="SVGID_8_" cx="-1026.2704" cy="2106.0203" r="13.4151" gradientTransform="matrix(2.4662 0 0 -2.4662 2577.9741 5217.4111)" gradientUnits="userSpaceOnUse">
		<stop  offset="0" style="stop-color:#FFFFFF"/>
		<stop  offset="0.344" style="stop-color:#FFFFFF"/>
		<stop  offset="0.481" style="stop-color:#F6F6F6"/>
		<stop  offset="0.582" style="stop-color:#EAEAEA"/>
		<stop  offset="0.665" style="stop-color:#D8D9D8"/>
		<stop  offset="0.737" style="stop-color:#C2C2C2"/>
		<stop  offset="0.802" style="stop-color:#A7A6A6"/>
		<stop  offset="0.86" style="stop-color:#848484"/>
		<stop  offset="0.913" style="stop-color:#606060"/>
		<stop  offset="0.949" style="stop-color:#414141"/>
		<stop  offset="0.957" style="stop-color:#414141"/>
		<stop  offset="1" style="stop-color:#414141"/>
		<stop  offset="1" style="stop-color:#010101"/>
	</radialGradient>
	<path class="st13" d="M42.3,35.5c0-8.2,6.6-14.7,14.7-14.7s14.7,6.6,14.7,14.7S65.2,50.2,57,50.2S42.3,43.7,42.3,35.5z"/>
	
		<radialGradient id="SVGID_9_" cx="-1030.2091" cy="2111.1055" r="23.7583" gradientTransform="matrix(2.4662 0 0 -2.4662 2577.9741 5217.4111)" gradientUnits="userSpaceOnUse">
		<stop  offset="0.169" style="stop-color:#FFFFFF"/>
		<stop  offset="0.196" style="stop-color:#DFEEF6"/>
		<stop  offset="0.241" style="stop-color:#B4D9EB"/>
		<stop  offset="0.287" style="stop-color:#8CC5E2"/>
		<stop  offset="0.335" style="stop-color:#6CB6DA"/>
		<stop  offset="0.384" style="stop-color:#51A9D4"/>
		<stop  offset="0.436" style="stop-color:#42A0CF"/>
		<stop  offset="0.491" style="stop-color:#369BCD"/>
		<stop  offset="0.556" style="stop-color:#3499CC"/>
		<stop  offset="0.606" style="stop-color:#3596C8"/>
		<stop  offset="0.655" style="stop-color:#328FBD"/>
		<stop  offset="0.705" style="stop-color:#3280A9"/>
		<stop  offset="0.754" style="stop-color:#316E8D"/>
		<stop  offset="0.803" style="stop-color:#2E5568"/>
		<stop  offset="0.851" style="stop-color:#2A383D"/>
		<stop  offset="0.871" style="stop-color:#292929"/>
	</radialGradient>
	<path class="st14" d="M42.2,35.5H57V20.7C48.8,20.7,42.2,27.3,42.2,35.5L42.2,35.5z"/>
	
		<radialGradient id="SVGID_10_" cx="-1030.2091" cy="2111.1055" r="23.7579" gradientTransform="matrix(2.4662 0 0 -2.4662 2577.9741 5217.4111)" gradientUnits="userSpaceOnUse">
		<stop  offset="0.169" style="stop-color:#FFFFFF"/>
		<stop  offset="0.196" style="stop-color:#DFEEF6"/>
		<stop  offset="0.241" style="stop-color:#B4D9EB"/>
		<stop  offset="0.287" style="stop-color:#8CC5E2"/>
		<stop  offset="0.335" style="stop-color:#6CB6DA"/>
		<stop  offset="0.384" style="stop-color:#51A9D4"/>
		<stop  offset="0.436" style="stop-color:#42A0CF"/>
		<stop  offset="0.491" style="stop-color:#369BCD"/>
		<stop  offset="0.556" style="stop-color:#3499CC"/>
		<stop  offset="0.606" style="stop-color:#3596C8"/>
		<stop  offset="0.655" style="stop-color:#328FBD"/>
		<stop  offset="0.705" style="stop-color:#3280A9"/>
		<stop  offset="0.754" style="stop-color:#316E8D"/>
		<stop  offset="0.803" style="stop-color:#2E5568"/>
		<stop  offset="0.851" style="stop-color:#2A383D"/>
		<stop  offset="0.871" style="stop-color:#292929"/>
	</radialGradient>
	<path class="st15" d="M57,35.5v14.8c8.2,0,14.8-6.7,14.8-14.8L57,35.5L57,35.5z"/>
	
		<radialGradient id="SVGID_11_" cx="-1028.6674" cy="2107.1448" r="9.0477" gradientTransform="matrix(2.4662 0 0 -2.4662 2577.9741 5217.4111)" gradientUnits="userSpaceOnUse">
		<stop  offset="0" style="stop-color:#E6E6E5"/>
		<stop  offset="0.104" style="stop-color:#D7D6D6"/>
		<stop  offset="0.307" style="stop-color:#AEAEAE"/>
		<stop  offset="0.588" style="stop-color:#6C6D6D"/>
		<stop  offset="0.933" style="stop-color:#141414"/>
		<stop  offset="1" style="stop-color:#010101"/>
	</radialGradient>
	<path class="st16" d="M71.9,35.2H57.3V20.5h-0.5v14.7H42.1v0.5h14.7v14.7h0.5V35.7H72L71.9,35.2L71.9,35.2z"/>
	
		<linearGradient id="SVGID_12_" gradientUnits="userSpaceOnUse" x1="-1023.4058" y1="2109.4038" x2="-1014.5824" y2="2100.8777" gradientTransform="matrix(2.4662 0 0 -2.4662 2577.9741 5217.4111)">
		<stop  offset="0" style="stop-color:#F1F4FA"/>
		<stop  offset="0.109" style="stop-color:#ECEFF9"/>
		<stop  offset="0.247" style="stop-color:#DCE0EA"/>
		<stop  offset="0.403" style="stop-color:#C4C7CE"/>
		<stop  offset="0.57" style="stop-color:#A2A4AB"/>
		<stop  offset="0.747" style="stop-color:#77777D"/>
		<stop  offset="0.929" style="stop-color:#424344"/>
		<stop  offset="1" style="stop-color:#2B2C2B"/>
	</linearGradient>
	<path class="st17" d="M57.3,21c7.8,0.1,14.1,6.4,14.2,14.2h0.2c-0.1-7.9-6.5-14.4-14.4-14.4V21z"/>
	<path class="st18" d="M42.5,35.2c0.1-7.8,6.4-14.1,14.3-14.3v-0.3c-8,0.2-14.4,6.7-14.6,14.6H42.5z"/>
	
		<linearGradient id="SVGID_13_" gradientUnits="userSpaceOnUse" x1="-1030.5885" y1="2102.1836" x2="-1021.765" y2="2093.657" gradientTransform="matrix(2.4662 0 0 -2.4662 2577.9741 5217.4111)">
		<stop  offset="0" style="stop-color:#F1F4FA"/>
		<stop  offset="0.109" style="stop-color:#ECEFF9"/>
		<stop  offset="0.247" style="stop-color:#DCE0EA"/>
		<stop  offset="0.403" style="stop-color:#C4C7CE"/>
		<stop  offset="0.57" style="stop-color:#A2A4AB"/>
		<stop  offset="0.747" style="stop-color:#77777D"/>
		<stop  offset="0.929" style="stop-color:#424344"/>
		<stop  offset="1" style="stop-color:#2B2C2B"/>
	</linearGradient>
	<path class="st19" d="M56.7,50c-7.8-0.1-14.1-6.4-14.2-14.2h-0.3c0.1,7.9,6.6,14.4,14.5,14.5V50L56.7,50z"/>
	<path class="st20" d="M71.5,35.7c-0.1,7.8-6.4,14.1-14.2,14.2v0.3c7.9-0.1,14.4-6.6,14.5-14.5L71.5,35.7L71.5,35.7z"/>
	
		<linearGradient id="SVGID_14_" gradientUnits="userSpaceOnUse" x1="-1026.2936" y1="2105.251" x2="-1021.7184" y2="2100.8298" gradientTransform="matrix(2.4662 0 0 -2.4662 2577.9741 5217.4111)">
		<stop  offset="0" style="stop-color:#C3D8E8"/>
		<stop  offset="0.134" style="stop-color:#BACFE0"/>
		<stop  offset="0.343" style="stop-color:#A4BBCD"/>
		<stop  offset="0.6" style="stop-color:#8198AB"/>
		<stop  offset="0.894" style="stop-color:#506A80"/>
		<stop  offset="1" style="stop-color:#3B576D"/>
	</linearGradient>
	<path class="st21" d="M56.5,20.7v14.2H42.3v0.3h14.5V20.7H56.5z"/>
	
		<linearGradient id="SVGID_15_" gradientUnits="userSpaceOnUse" x1="-1028.5931" y1="2104.1592" x2="-1019.8585" y2="2095.7188" gradientTransform="matrix(2.4662 0 0 -2.4662 2577.9741 5217.4111)">
		<stop  offset="0" style="stop-color:#F1F4FA"/>
		<stop  offset="9.700001e-02" style="stop-color:#E8EBF6"/>
		<stop  offset="0.257" style="stop-color:#D2D4DD"/>
		<stop  offset="0.459" style="stop-color:#ABAEB5"/>
		<stop  offset="0.695" style="stop-color:#797A7E"/>
		<stop  offset="0.958" style="stop-color:#373738"/>
		<stop  offset="1" style="stop-color:#2B2C2B"/>
	</linearGradient>
	<path class="st22" d="M56.4,50.1V36H42.3v-0.3h14.4v14.4H56.4z"/>
	
		<linearGradient id="SVGID_16_" gradientUnits="userSpaceOnUse" x1="-1022.1455" y1="2101.0383" x2="-1019.0817" y2="2098.0774" gradientTransform="matrix(2.4662 0 0 -2.4662 2577.9741 5217.4111)">
		<stop  offset="0" style="stop-color:#D9DEF0"/>
		<stop  offset="0.123" style="stop-color:#D4DAEB"/>
		<stop  offset="0.263" style="stop-color:#C8D0E2"/>
		<stop  offset="0.411" style="stop-color:#B0BCD1"/>
		<stop  offset="0.566" style="stop-color:#91A1B8"/>
		<stop  offset="0.725" style="stop-color:#688099"/>
		<stop  offset="0.885" style="stop-color:#355674"/>
		<stop  offset="0.972" style="stop-color:#183E5D"/>
	</linearGradient>
	<path class="st23" d="M57.6,50.1V36h14.1v-0.3H57.3v14.4H57.6z"/>
	
		<linearGradient id="SVGID_17_" gradientUnits="userSpaceOnUse" x1="-1025.2909" y1="2107.3611" x2="-1016.5657" y2="2098.9297" gradientTransform="matrix(2.4662 0 0 -2.4662 2577.9741 5217.4111)">
		<stop  offset="0" style="stop-color:#F1F4FA"/>
		<stop  offset="0.109" style="stop-color:#ECEFF9"/>
		<stop  offset="0.247" style="stop-color:#DCE0EA"/>
		<stop  offset="0.403" style="stop-color:#C4C7CE"/>
		<stop  offset="0.57" style="stop-color:#A2A4AB"/>
		<stop  offset="0.747" style="stop-color:#77777D"/>
		<stop  offset="0.929" style="stop-color:#424344"/>
		<stop  offset="1" style="stop-color:#2B2C2B"/>
	</linearGradient>
	<path class="st24" d="M57.6,20.8v14.1h14.1v0.3H57.3V20.8H57.6z"/>
</g>
</svg>
