<svg id="Group_5859" data-name="Group 5859" xmlns="http://www.w3.org/2000/svg" width="19.688" height="26.169" viewBox="0 0 19.688 26.169">
  <path id="Path_2430" data-name="Path 2430" d="M99.978,330.915l3.61,2.982a7.957,7.957,0,0,0,3.219-1.806,5.252,5.252,0,0,1,1.413-1.334s3.689,1.02,3.689,1.647,1.021,1.414-2.59,2.356-11.225,1.413-13.188-1.335c0,0-1.1-1.178,1.257-1.962S99.978,330.915,99.978,330.915Z" transform="translate(-94.09 -309.711)" fill="#efefef"/>
  <path id="Path_2431" data-name="Path 2431" d="M99.525,334.33c-2.494-2.576-5.077-6.368-5.077-11.027a9.844,9.844,0,0,1,19.688,0c0,4.659-2.583,8.451-5.077,11.027,2.356.522,3.693,1.386,3.693,2.411,0,1.875-4.358,2.887-8.46,2.887s-8.459-1.012-8.459-2.887c0-1.026,1.337-1.89,3.693-2.411Zm4.766-20.156a9.139,9.139,0,0,0-9.128,9.129c0,7.882,7.825,13.218,9.128,14.051,1.3-.832,9.129-6.169,9.129-14.051a9.14,9.14,0,0,0-9.129-9.129Zm0,24.739c4.8,0,7.744-1.265,7.744-2.172,0-.544-1.117-1.331-3.562-1.8a24.006,24.006,0,0,1-4,3.145.355.355,0,0,1-.364,0,24.006,24.006,0,0,1-4-3.145c-2.446.472-3.563,1.259-3.563,1.8,0,.906,2.946,2.172,7.743,2.172Z" transform="translate(-94.448 -313.46)" fill="#4d4d4d"/>
  <path id="Path_2432" data-name="Path 2432" d="M103.279,318.243l-.534,2.848-3.9,2.741,4.058-1.344.053,2.1L101.3,326.3v1.021l2.273-1.353,2,1.3.129-1.249-1.784-1.492v-1.988l3.9,1.5-3.9-2.9Z" transform="translate(-93.483 -312.423)" fill="#4d4d4d"/>
</svg>
