<?xml version="1.0" encoding="UTF-8"?><svg id="Layer_1" xmlns="http://www.w3.org/2000/svg" viewBox="0 0 15 11.77"><defs><style>.cls-1{fill:#4d4d4d;}.cls-1,.cls-2{stroke-width:0px;}.cls-2{fill:gray;}.cls-3{opacity:.67;}</style></defs><g id="g155" class="cls-3"><polygon id="polygon149" class="cls-1" points="13.12 11.77 15 11.77 12.07 .02 10.93 .02 13.12 11.77"/><polygon id="polygon151" class="cls-1" points="1.88 11.77 4.07 0 2.93 0 0 11.77 1.88 11.77"/><path id="path153" class="cls-2" d="m7.79.02v.7s-.58,0-.58,0V.02S4.93.02,4.93.02l-1.65,11.75h3.75l.03-1.7h.89l.03,1.7h3.75L10.07.02h-2.29Zm-.6,2.04h.64l.02,1.55h-.68l.02-1.55Zm-.09,5.47l.03-2.12h.74l.03,2.12h-.81Z"/></g></svg>